<svg width="11" height="20" viewBox="0 0 11 20" fill="none" xmlns="http://www.w3.org/2000/svg">
<path d="M2.40747 0.0828609C2.61911 0.08214 2.82823 0.128851 3.01945 0.219559C3.21067 0.310266 3.37914 0.442665 3.51247 0.607029L10.355 9.10703C10.5633 9.36052 10.6772 9.67848 10.6772 10.0066C10.6772 10.3347 10.5633 10.6527 10.355 10.9062L3.27164 19.4062C3.03118 19.6955 2.68563 19.8774 2.31103 19.912C1.93643 19.9465 1.56345 19.8308 1.27414 19.5904C0.984832 19.3499 0.802897 19.0044 0.768359 18.6298C0.733822 18.2551 0.849508 17.8822 1.08997 17.5929L7.42247 9.99953L1.30247 2.40619C1.12924 2.19825 1.0192 1.94503 0.985366 1.67651C0.951537 1.40798 0.995336 1.13538 1.11158 0.890963C1.22783 0.646549 1.41165 0.44055 1.64131 0.297338C1.87097 0.154127 2.13684 0.0796986 2.40747 0.0828609Z" fill="#2A2A2A"/>
</svg>
