<svg width="24" height="29" viewBox="0 0 24 29" fill="none" xmlns="http://www.w3.org/2000/svg">
<path d="M16 0.333008H8V2.99967H16V0.333008ZM10.6667 17.6663H13.3333V9.66634H10.6667V17.6663ZM21.3733 8.85301L23.2667 6.95967C22.6933 6.27967 22.0667 5.63967 21.3867 5.07967L19.4933 6.97301C17.3698 5.26411 14.7258 4.33259 12 4.33301C5.37333 4.33301 0 9.70634 0 16.333C0 22.9597 5.36 28.333 12 28.333C14.2591 28.3342 16.4726 27.6973 18.3855 26.4956C20.2985 25.2939 21.8331 23.5763 22.8126 21.5407C23.7921 19.505 24.1767 17.234 23.9221 14.9893C23.6674 12.7447 22.7839 10.6176 21.3733 8.85301ZM12 25.6663C6.84 25.6663 2.66667 21.493 2.66667 16.333C2.66667 11.173 6.84 6.99967 12 6.99967C17.16 6.99967 21.3333 11.173 21.3333 16.333C21.3333 21.493 17.16 25.6663 12 25.6663Z" fill="#2A2A2A"/>
</svg>
