<svg width="14" height="9" viewBox="0 0 14 9" fill="none" xmlns="http://www.w3.org/2000/svg">
<path d="M13.6053 1.1421C13.699 0.842647 13.6053 0.623047 13.1622 0.623047H11.6942C11.3207 0.623047 11.15 0.813024 11.0563 1.02168C11.0563 1.02168 10.3099 2.77268 9.25233 3.90804C8.91094 4.2384 8.75498 4.34273 8.56889 4.34273C8.47584 4.34273 8.34063 4.2384 8.34063 3.93895V1.1421C8.34063 0.782756 8.23286 0.623047 7.9216 0.623047H5.61491C5.38197 0.623047 5.2414 0.789196 5.2414 0.947618C5.2414 1.28764 5.77021 1.36621 5.82443 2.32447V4.40326C5.82443 4.85856 5.73942 4.94164 5.55199 4.94164C5.05464 4.94164 3.8444 3.18419 3.12616 1.17237C2.98626 0.781468 2.84502 0.623691 2.47017 0.623691H1.00289C0.583184 0.623691 0.499512 0.813668 0.499512 1.02232C0.499512 1.39712 0.996861 3.25181 2.81624 5.70477C4.02915 7.37978 5.73674 8.28781 7.29238 8.28781C8.22483 8.28781 8.33996 8.08624 8.33996 7.73848V6.4724C8.33996 6.06926 8.42899 5.98812 8.72418 5.98812C8.94106 5.98812 9.31458 6.09374 10.1854 6.90065C11.1801 7.85762 11.3448 8.28716 11.9037 8.28716H13.371C13.7901 8.28716 13.9996 8.08559 13.8791 7.68761C13.7472 7.29156 13.272 6.71519 12.6414 6.0332C12.2987 5.64423 11.7866 5.22564 11.6306 5.01634C11.4131 4.74651 11.476 4.62737 11.6306 4.38781C11.6313 4.38845 13.4192 1.96576 13.6053 1.1421Z" fill="#F9A43F"/>
</svg>
